<svg width="511" height="511" viewBox="0 0 511 511" fill="none" xmlns="http://www.w3.org/2000/svg">
<path d="M185.287 188.512L203.167 187.171L196.462 161.692L189.757 162.139L185.287 188.512ZM160.702 235L179.029 133.084L204.508 134.425L233.563 235H214.789L205.849 201.475L183.052 201.922L176.347 235H160.702ZM297.655 190.747L285.735 190.896C283.649 187.767 281.861 185.234 278.434 184.489C274.113 183.744 271.431 184.191 267.259 185.83C266.812 185.979 266.365 185.979 266.365 186.277V214.438V230.53V235H245.803V171.079H266.365V176.741C269.196 175.251 272.325 174.208 276.199 173.314C282.159 171.824 287.076 171.675 291.844 175.549C296.761 179.572 296.91 184.34 297.655 190.747ZM317.457 145.153H337.572V165.715H348.3V184.936H337.572V235H317.457V184.936H307.623V165.715H317.457V145.153ZM87.6462 360L88.0932 254.955L142.627 253.614L143.074 272.388L102.397 274.176V299.208L128.323 297.42V314.406H102.844L102.397 360H87.6462ZM154.424 340.332V296.675H166.344V340.183C168.43 343.312 170.069 345.994 173.645 346.59C177.966 347.335 180.499 347.037 184.82 345.249C185.118 345.249 185.714 345.1 185.714 344.951V316.79V300.698V296.079H206.276V360H185.714V354.487C182.734 355.977 179.605 357.02 175.88 357.765C169.92 359.255 165.003 359.404 160.235 355.53C155.318 351.507 155.169 346.739 154.424 340.332ZM246.64 347.484C249.173 345.547 250.365 343.461 250.663 340.332C250.961 336.458 249.173 333.478 246.342 330.945C241.425 326.624 236.21 328.263 230.697 324.687C225.929 321.558 220.416 319.472 218.628 313.959C215.946 306.36 215.499 308.148 217.287 300.549C218.926 293.695 220.565 288.48 226.674 284.904C232.932 281.328 240.829 281.477 247.683 284.01C255.431 286.841 259.603 290.715 263.775 297.867C266.755 302.933 264.371 307.105 264.669 313.065L251.706 312.618C250.812 309.34 252.749 303.976 250.216 301.592C247.832 299.506 244.256 296.675 241.276 297.569C236.508 299.059 237.998 298.612 236.508 299.059C234.422 299.655 232.932 300.698 232.038 302.188C230.101 305.168 229.803 307.254 230.846 310.532C231.889 314.406 237.402 315.3 240.978 317.088C247.683 320.515 253.792 318.876 259.752 323.793C263.924 327.22 266.159 331.392 266.308 336.756C266.457 342.12 264.967 345.398 261.838 349.719C258.262 354.785 255.58 358.063 249.769 360C243.064 362.235 238.445 362.384 231.889 360C225.035 357.616 220.565 354.785 216.691 348.378C213.562 343.312 216.095 339.438 215.797 333.627L232.783 334.521C232.783 334.521 232.038 338.097 232.336 340.332C232.634 342.716 232.783 344.206 234.124 346.143C235.465 347.931 236.657 348.974 239.041 349.272C242.021 349.57 244.256 349.272 246.64 347.484ZM273.563 310.383H296.36V360H273.563V310.383ZM273.116 284.457H296.807V300.549H273.116V284.457ZM319.734 326.773C319.734 334.67 326.141 341.077 334.038 341.077C341.935 341.077 348.342 334.67 348.342 326.773C348.342 318.876 341.935 312.469 334.038 312.469C326.141 312.469 319.734 318.876 319.734 326.773ZM304.536 326.773C304.536 309.489 317.35 295.483 333.144 295.483C348.938 295.483 361.752 309.489 361.752 326.773C361.752 344.057 348.938 358.063 333.144 358.063C317.35 358.063 304.536 344.057 304.536 326.773ZM421.773 315.747V359.404H409.853V315.896C407.767 312.767 405.979 310.234 402.552 309.489C398.231 308.744 395.549 309.191 391.377 310.83C390.93 310.979 390.483 310.979 390.483 311.277V339.438V355.53V360H369.921V296.079H390.483V301.741C393.314 300.251 396.443 299.208 400.317 298.314C406.277 296.824 411.194 296.675 415.962 300.549C420.879 304.572 421.028 309.34 421.773 315.747Z" fill="#13427F"/>
</svg>
